<svg width="11" height="11" viewBox="0 0 11 11" fill="none" xmlns="http://www.w3.org/2000/svg">
<path d="M5.25436 10.5032C5.10539 10.5041 4.95954 10.4605 4.8354 10.3782C4.71126 10.2958 4.61446 10.1784 4.55733 10.0408C4.50021 9.90322 4.48535 9.75175 4.51465 9.60569C4.54395 9.45962 4.61609 9.3256 4.72186 9.2207L8.69686 5.25319L4.72186 1.28569C4.59899 1.14222 4.53479 0.957661 4.54208 0.768904C4.54937 0.580147 4.62762 0.401093 4.76119 0.267522C4.89476 0.133951 5.07381 0.0557018 5.26257 0.0484109C5.45133 0.04112 5.63589 0.105325 5.77936 0.228194L10.2794 4.72819C10.4191 4.86872 10.4975 5.05881 10.4975 5.25694C10.4975 5.45508 10.4191 5.64517 10.2794 5.78569L5.77936 10.2857C5.63967 10.4243 5.45112 10.5024 5.25436 10.5032Z" fill="#D9D9D9"/>
<path d="M0.754362 10.5031C0.605393 10.5039 0.459542 10.4604 0.335402 10.3781C0.211262 10.2957 0.114459 10.1783 0.0573337 10.0407C0.000208586 9.9031 -0.01465 9.75162 0.0146522 9.60556C0.0439545 9.4595 0.11609 9.32547 0.221862 9.22057L4.19686 5.25307L0.221862 1.28557C0.080634 1.14434 0.00129302 0.952795 0.00129302 0.753069C0.00129302 0.553343 0.080634 0.361797 0.221862 0.220569C0.36309 0.079341 0.554636 1.48808e-09 0.754362 0C0.954088 -1.48808e-09 1.14563 0.079341 1.28686 0.220569L5.78686 4.72057C5.92655 4.86109 6.00496 5.05118 6.00496 5.24932C6.00496 5.44746 5.92655 5.63755 5.78686 5.77807L1.28686 10.2781C1.2174 10.3489 1.13457 10.4053 1.04316 10.4439C0.951755 10.4826 0.853592 10.5027 0.754362 10.5031Z" fill="#D9D9D9"/>
</svg>
