<svg width="19" height="15" viewBox="0 0 19 15" fill="none" xmlns="http://www.w3.org/2000/svg">
<path fill-rule="evenodd" clip-rule="evenodd" d="M17.3434 10.6307C17.3434 12.3196 15.9696 13.6912 14.2829 13.6912H4.24156C2.5548 13.6912 1.18094 12.3195 1.18094 10.6307V4.24152C1.18056 3.6972 1.32638 3.16276 1.60316 2.69406L6.50269 7.59359C7.2357 8.32875 8.2173 8.73383 9.26324 8.73383C10.307 8.73383 11.2886 8.32875 12.0216 7.59359L16.9212 2.69406C17.198 3.16276 17.3438 3.6972 17.3434 4.24152V10.6307H17.3434ZM14.2828 1.18094H4.24156C3.545 1.18094 2.90199 1.41668 2.38762 1.80891L7.33644 6.75988C7.84871 7.26996 8.53238 7.55289 9.26324 7.55289C9.99195 7.55289 10.6757 7.26996 11.1879 6.75988L16.1367 1.80891C15.6224 1.41668 14.9794 1.18094 14.2828 1.18094ZM14.2828 0H4.24156C1.90324 0 0 1.90324 0 4.24156V10.6307C0 12.9712 1.90324 14.8723 4.24156 14.8723H14.2828C16.6211 14.8723 18.5244 12.9712 18.5244 10.6307V4.24152C18.5244 1.9032 16.6211 0 14.2828 0Z" fill="#FFA920"/>
</svg>
