<svg width="44" height="44" viewBox="0 0 44 44" fill="none" xmlns="http://www.w3.org/2000/svg">
<path d="M5.50001 28.2857C5.70839 28.2857 5.90824 28.2029 6.05559 28.0555C6.20294 27.9082 6.28572 27.7083 6.28572 27.4999V25.9285C6.28572 25.095 6.61684 24.2956 7.20624 23.7062C7.79564 23.1168 8.59504 22.7857 9.42858 22.7857H21.2143V27.4999C21.2143 27.7083 21.2971 27.9082 21.4444 28.0555C21.5918 28.2029 21.7916 28.2857 22 28.2857C22.2084 28.2857 22.4082 28.2029 22.5556 28.0555C22.7029 27.9082 22.7857 27.7083 22.7857 27.4999V22.7857H34.5714C35.405 22.7857 36.2044 23.1168 36.7938 23.7062C37.3832 24.2956 37.7143 25.095 37.7143 25.9285V27.4999C37.7143 27.7083 37.7971 27.9082 37.9444 28.0555C38.0918 28.2029 38.2916 28.2857 38.5 28.2857C38.7084 28.2857 38.9082 28.2029 39.0556 28.0555C39.2029 27.9082 39.2857 27.7083 39.2857 27.4999V25.9285C39.2845 24.6786 38.7874 23.4802 37.9036 22.5964C37.0197 21.7126 35.8214 21.2155 34.5714 21.2142H22.7857V16.4999C22.7857 16.2916 22.7029 16.0917 22.5556 15.9444C22.4082 15.797 22.2084 15.7142 22 15.7142C21.7916 15.7142 21.5918 15.797 21.4444 15.9444C21.2971 16.0917 21.2143 16.2916 21.2143 16.4999V21.2142H9.42858C8.17866 21.2155 6.98028 21.7126 6.09645 22.5964C5.21263 23.4802 4.71554 24.6786 4.71429 25.9285V27.4999C4.71429 27.7083 4.79707 27.9082 4.94442 28.0555C5.09178 28.2029 5.29162 28.2857 5.50001 28.2857Z" fill="#FFA920"/>
<path d="M25.9286 31.4286H18.0714C17.2036 31.4286 16.5 32.1321 16.5 33V42.4286C16.5 43.2965 17.2036 44 18.0714 44H25.9286C26.7964 44 27.5 43.2965 27.5 42.4286V33C27.5 32.1321 26.7964 31.4286 25.9286 31.4286Z" fill="#FFA920"/>
<path d="M42.4286 31.4286H34.5714C33.7036 31.4286 33 32.1321 33 33V42.4286C33 43.2965 33.7036 44 34.5714 44H42.4286C43.2964 44 44 43.2965 44 42.4286V33C44 32.1321 43.2964 31.4286 42.4286 31.4286Z" fill="#FFA920"/>
<path d="M25.9286 0H18.0714C17.2036 0 16.5 0.703552 16.5 1.57143V11C16.5 11.8679 17.2036 12.5714 18.0714 12.5714H25.9286C26.7964 12.5714 27.5 11.8679 27.5 11V1.57143C27.5 0.703552 26.7964 0 25.9286 0Z" fill="#FFA920"/>
<path d="M9.42857 31.4286H1.57143C0.703552 31.4286 0 32.1321 0 33V42.4286C0 43.2965 0.703552 44 1.57143 44H9.42857C10.2964 44 11 43.2965 11 42.4286V33C11 32.1321 10.2964 31.4286 9.42857 31.4286Z" fill="#FFA920"/>
</svg>
