<svg width="19" height="19" viewBox="0 0 19 19" fill="none" xmlns="http://www.w3.org/2000/svg">
<path d="M18.1469 13.4963C18.1138 13.4688 14.3663 10.8025 13.3544 10.9656C12.8663 11.0519 12.5875 11.385 12.0281 12.0512C11.8735 12.2367 11.7153 12.4193 11.5538 12.5988C11.2002 12.4836 10.8554 12.3432 10.5219 12.1788C8.80033 11.3406 7.40937 9.94967 6.57125 8.22812C6.40679 7.89464 6.26643 7.5498 6.15125 7.19625C6.335 7.02812 6.5925 6.81125 6.7025 6.71875C7.36562 6.1625 7.69812 5.88312 7.78438 5.39437C7.96125 4.3825 5.28125 0.63625 5.25375 0.6025C5.1317 0.42941 4.97275 0.285578 4.78836 0.181386C4.60397 0.0771933 4.39874 0.0152407 4.1875 0C3.10125 0 0 4.0225 0 4.70062C0 4.74 0.0568751 8.7425 4.9925 13.7631C10.0075 18.6931 14.01 18.75 14.0494 18.75C14.7269 18.75 18.75 15.6487 18.75 14.5625C18.7346 14.3512 18.6725 14.146 18.5682 13.9616C18.4639 13.7772 18.32 13.6183 18.1469 13.4963ZM13.98 17.4963C13.4375 17.45 10.075 17.0069 5.875 12.8813C1.72937 8.66063 1.2975 5.2925 1.25437 4.77063C2.07361 3.48478 3.06299 2.31564 4.19562 1.295C4.22062 1.32 4.25375 1.3575 4.29625 1.40625C5.16489 2.59202 5.91317 3.86142 6.53 5.19562C6.32941 5.39742 6.1174 5.58753 5.895 5.765C5.55012 6.02778 5.23343 6.32563 4.95 6.65375C4.90204 6.72104 4.8679 6.79717 4.84956 6.87774C4.83121 6.9583 4.82903 7.04171 4.84312 7.12313C4.97539 7.69608 5.17797 8.25049 5.44625 8.77375C6.40743 10.7475 8.00235 12.3422 9.97625 13.3031C10.4994 13.5718 11.0538 13.7746 11.6269 13.9069C11.7083 13.9213 11.7918 13.9193 11.8724 13.9009C11.953 13.8825 12.0291 13.8482 12.0963 13.8C12.4255 13.5154 12.7244 13.1975 12.9881 12.8512C13.1844 12.6175 13.4462 12.3056 13.5456 12.2175C14.8832 12.8337 16.1555 13.5829 17.3431 14.4537C17.395 14.4975 17.4319 14.5312 17.4562 14.5531C16.4356 15.6861 15.2662 16.6757 13.98 17.495V17.4963ZM13.75 8.75H15C14.9985 7.42437 14.4712 6.15347 13.5339 5.21611C12.5965 4.27875 11.3256 3.75149 10 3.75V5C10.9943 5.00099 11.9475 5.3964 12.6506 6.09945C13.3536 6.80249 13.749 7.75574 13.75 8.75Z" fill="#FFA920"/>
<path d="M16.875 8.75H18.125C18.1225 6.59588 17.2657 4.53069 15.7425 3.0075C14.2193 1.4843 12.1541 0.627481 10 0.625V1.875C11.8227 1.87715 13.5701 2.60217 14.859 3.89102C16.1478 5.17986 16.8728 6.9273 16.875 8.75Z" fill="#FFA920"/>
</svg>
