<svg width="61" height="45" viewBox="0 0 61 45" fill="none" xmlns="http://www.w3.org/2000/svg">
<path fill-rule="evenodd" clip-rule="evenodd" d="M22.2792 23.4884C21.84 22.436 21.6289 21.3353 21.6289 20.1588V5.8457C25.367 4.9989 32.3192 3.18445 38.0591 0C43.799 3.18445 50.7504 4.9989 54.4893 5.8457V20.1588C54.4893 21.931 54.0093 23.5338 52.9913 25.0549C51.9837 26.5639 50.4312 27.9551 48.6132 29.2494C46.6966 30.0236 44.722 30.7705 42.9721 31.3603C43.1287 30.7525 43.0776 30.1174 42.8223 29.5216C46.7612 27.2656 49.1545 25.3876 50.3223 23.6426C51.044 22.56 51.3845 21.4501 51.3845 20.1528V8.5524C51.3845 8.2016 51.1223 7.89011 50.7445 7.79334C46.0871 6.58066 41.9681 5.10785 38.4915 3.41742C38.226 3.28738 37.9026 3.28738 37.6336 3.41742C34.1576 5.11095 30.0348 6.58368 25.3807 7.79334C24.9994 7.89314 24.7406 8.2016 24.7406 8.5524V20.1528C24.7406 21.4501 25.0777 22.56 25.8029 23.6426C26.1059 24.0963 26.494 24.559 26.9671 25.0338C26.7322 24.9491 26.5007 24.8614 26.2692 24.7767C24.8939 24.2717 23.5934 23.7909 22.2861 23.4823L22.2792 23.4884ZM48.7896 22.8382C47.7784 24.3533 45.4906 26.1164 41.8139 28.2212C41.1296 27.6829 40.241 27.3926 39.2844 27.4198C36.166 27.4198 33.633 27.0236 31.4406 26.4671C29.4285 25.1304 28.0498 23.9087 27.3315 22.8381C26.7697 21.9975 26.5178 21.1719 26.5178 20.1558V9.14454C30.8483 7.98327 34.7259 6.59516 38.0587 5.01056C41.3916 6.59524 45.2692 7.98327 49.5961 9.14454V20.1558C49.5961 21.1719 49.3476 21.9975 48.7858 22.8381L48.7896 22.8382ZM45.9877 12.0151C45.2183 11.3317 43.9553 11.3317 43.1859 12.0151L35.2569 19.0584L33.2517 15.9738C32.707 15.1361 31.4882 14.8458 30.5452 15.3296C29.6021 15.8135 29.2753 16.8961 29.82 17.7339L33.2381 22.9929C33.5275 23.4374 33.9871 23.7096 34.559 23.7761C35.1309 23.8427 35.6552 23.6854 36.0604 23.3225L45.9881 14.5007C46.7575 13.8172 46.7575 12.6953 45.9881 12.0118L45.9877 12.0151ZM6.69016 28.6694C6.42802 28.0706 5.66541 27.7712 4.99136 28.0041L0.837972 29.4345C0.163891 29.6674 -0.173185 30.3448 0.0889909 30.9436L5.8936 44.2556C6.15574 44.8544 6.91835 45.1538 7.5924 44.9209L11.7458 43.4905C12.4199 43.2576 12.7569 42.5802 12.4948 41.9815L6.69016 28.6694ZM60.5929 27.1724C60.0891 26.6613 58.9792 26.3317 57.5256 27.0787C54.2369 28.7662 45.3171 32.5736 40.5271 33.7741C39.1586 34.2882 37.4155 34.4455 35.8017 34.4455C35.4477 34.4455 35.097 34.4364 34.76 34.4243C31.7403 34.3064 28.3767 33.6804 26.7664 32.9364C26.3306 32.7338 26.1604 32.256 26.3851 31.8689C26.6132 31.4788 27.1511 31.3306 27.5868 31.5332C28.7818 32.0866 31.8186 32.7248 34.8349 32.8427C38.0588 32.9667 40.3671 32.4707 41.0071 31.512C41.3611 30.9828 41.3611 30.3477 41.0037 29.8185C40.6462 29.2862 40.0198 28.9808 39.3287 29.005H39.2946C33.0611 29.005 28.9111 27.4777 25.5784 26.2469C22.1467 24.9828 19.6683 24.0665 16.4578 25.3548C14.061 26.3135 12.3656 27.0937 10.871 27.7832C10.1153 28.131 9.39352 28.4637 8.64792 28.7873L13.6933 40.3636C19.6987 39.3748 24.7035 39.8918 29.1396 40.3545C30.4231 40.4876 31.635 40.6146 32.8095 40.6963C36.5204 40.9594 39.6354 40.4301 42.9071 38.9816C49.5764 35.8425 59.3339 30.886 60.3204 29.7309C61.2771 28.612 61.0864 27.6775 60.586 27.1725L60.5929 27.1724Z" fill="#FFA920"/>
</svg>
