<svg width="60" height="60" viewBox="0 0 60 60" fill="none" xmlns="http://www.w3.org/2000/svg">
<rect width="60" height="60" rx="30" fill="#FFA920"/>
<mask id="mask0_1_931" style="mask-type:alpha" maskUnits="userSpaceOnUse" x="18" y="18" width="24" height="24">
<rect x="18" y="18" width="24" height="24" fill="#D9D9D9"/>
</mask>
<g mask="url(#mask0_1_931)">
<path d="M37.6 39L31.3 32.7C30.8 33.1 30.225 33.4167 29.575 33.65C28.925 33.8833 28.2333 34 27.5 34C25.6833 34 24.1458 33.3708 22.8875 32.1125C21.6292 30.8542 21 29.3167 21 27.5C21 25.6833 21.6292 24.1458 22.8875 22.8875C24.1458 21.6292 25.6833 21 27.5 21C29.3167 21 30.8542 21.6292 32.1125 22.8875C33.3708 24.1458 34 25.6833 34 27.5C34 28.2333 33.8833 28.925 33.65 29.575C33.4167 30.225 33.1 30.8 32.7 31.3L39 37.6L37.6 39ZM27.5 32C28.75 32 29.8125 31.5625 30.6875 30.6875C31.5625 29.8125 32 28.75 32 27.5C32 26.25 31.5625 25.1875 30.6875 24.3125C29.8125 23.4375 28.75 23 27.5 23C26.25 23 25.1875 23.4375 24.3125 24.3125C23.4375 25.1875 23 26.25 23 27.5C23 28.75 23.4375 29.8125 24.3125 30.6875C25.1875 31.5625 26.25 32 27.5 32Z" fill="white"/>
</g>
</svg>
