<svg width="44" height="60" viewBox="0 0 44 60" fill="none" xmlns="http://www.w3.org/2000/svg">
<path d="M41.9402 7.62323C35.7802 7.36608 29.4914 4.94463 23.2667 0.401796C22.5154 -0.133932 21.4852 -0.133932 20.734 0.401796C14.5096 4.94476 8.22066 7.36608 2.06049 7.62323C0.901463 7.66609 0 8.60897 0 9.76614V30.0377C0 43.0022 8.1348 54.831 20.2615 59.4816C20.9912 59.7602 21.9141 60.2102 22.7083 59.8888C35.4359 55.4959 44 43.517 44 30.0595V9.76597C44 8.6088 43.0992 7.66609 41.9402 7.62323ZM35.3295 24.6808L21.6355 38.331C21.2491 38.7381 20.6911 38.9738 20.133 38.9738C19.5535 38.9738 19.0169 38.7381 18.6091 38.331L10.8177 30.574C9.98059 29.7382 9.98059 28.3667 10.8177 27.531C11.6548 26.6953 13.0285 26.6953 13.8655 27.531L20.1328 33.7883L32.2815 21.6591C33.1186 20.8233 34.4922 20.8233 35.3293 21.6591C36.1663 22.4949 36.1666 23.8451 35.3295 24.6808Z" fill="#FFA920"/>
</svg>
