<svg width="24" height="24" viewBox="0 0 24 24" fill="none" xmlns="http://www.w3.org/2000/svg">
<path d="M23.9837 2.42265C24.1007 1.87802 23.5667 1.41879 23.0459 1.61753L0.452326 10.2425C0.319493 10.2932 0.205157 10.383 0.124404 10.5C0.0436507 10.617 0.000275463 10.7558 1.30767e-06 10.898C-0.000272848 11.0402 0.0425669 11.1791 0.122868 11.2964C0.203169 11.4138 0.317158 11.504 0.449795 11.5552L6.79675 14.0065V21.7274C6.79674 21.8856 6.85008 22.0392 6.94817 22.1633C7.04625 22.2875 7.18334 22.3749 7.33726 22.4115C7.49118 22.4481 7.65295 22.4317 7.7964 22.365C7.93986 22.2982 8.05661 22.1851 8.1278 22.0438L10.7528 16.8347L17.1589 21.5889C17.5485 21.8781 18.1087 21.6941 18.2504 21.2294C24.2316 1.61908 23.973 2.47192 23.9837 2.42265ZM18.4065 4.89378L7.40021 12.7321L2.66457 10.9031L18.4065 4.89378ZM8.20298 13.8868L17.7967 7.05447C9.54144 15.7633 9.97259 15.3049 9.93659 15.3534C9.88311 15.4253 10.0296 15.1449 8.20298 18.7697V13.8868ZM17.1962 19.8654L11.5574 15.6806L21.7531 4.92472L17.1962 19.8654Z" fill="#FAF9F6"/>
</svg>
